<svg width="17" height="18" viewBox="0 0 17 18" fill="none" xmlns="http://www.w3.org/2000/svg">
<path d="M1 5.25H16M4 12.75H7M10 12.75H13M3.4 16.5H13.6C14.4401 16.5 14.8601 16.5 15.181 16.2956C15.4632 16.1159 15.6927 15.829 15.8365 15.4762C16 15.0751 16 14.5501 16 13.5V4.5C16 3.4499 16 2.92485 15.8365 2.52377C15.6927 2.17096 15.4632 1.88413 15.181 1.70436C14.8601 1.5 14.4401 1.5 13.6 1.5H3.4C2.55992 1.5 2.13988 1.5 1.81901 1.70436C1.53677 1.88413 1.3073 2.17096 1.16349 2.52377C1 2.92485 1 3.4499 1 4.5V13.5C1 14.5501 1 15.0751 1.16349 15.4762C1.3073 15.829 1.53677 16.1159 1.81901 16.2956C2.13988 16.5 2.55992 16.5 3.4 16.5Z" stroke="#3C4242" stroke-width="1.1" stroke-linecap="round"/>
</svg>
