<svg width="22" height="22" viewBox="0 0 22 22" fill="none" xmlns="http://www.w3.org/2000/svg">
<path d="M2.66696 12.074C2.35385 11.3928 2.35385 10.607 2.66696 9.92581C4.1163 6.77264 7.30262 4.58325 11.0003 4.58325C14.698 4.58325 17.8843 6.77265 19.3337 9.92581C19.6468 10.607 19.6468 11.3928 19.3337 12.074C17.8843 15.2272 14.698 17.4166 11.0003 17.4166C7.30262 17.4166 4.1163 15.2272 2.66696 12.074Z" stroke="#3C4242" stroke-width="1.5"/>
<path d="M13.7503 10.9999C13.7503 12.5187 12.5191 13.7499 11.0003 13.7499C9.48152 13.7499 8.25031 12.5187 8.25031 10.9999C8.25031 9.48114 9.48152 8.24992 11.0003 8.24992C12.5191 8.24992 13.7503 9.48114 13.7503 10.9999Z" stroke="#3C4242" stroke-width="1.5"/>
</svg>
