<svg width="22" height="22" viewBox="0 0 22 22" fill="none" xmlns="http://www.w3.org/2000/svg">
<path d="M11.0001 8.25C10.2707 8.25 9.57126 8.53973 9.05554 9.05546C8.53981 9.57118 8.25008 10.2707 8.25008 11C8.25008 11.7293 8.53981 12.4288 9.05554 12.9445C9.57126 13.4603 10.2707 13.75 11.0001 13.75C11.7294 13.75 12.4289 13.4603 12.9446 12.9445C13.4604 12.4288 13.7501 11.7293 13.7501 11C13.7501 10.2707 13.4604 9.57118 12.9446 9.05546C12.4289 8.53973 11.7294 8.25 11.0001 8.25ZM11.0001 15.5833C9.78451 15.5833 8.61872 15.1004 7.75917 14.2409C6.89963 13.3814 6.41675 12.2156 6.41675 11C6.41675 9.78442 6.89963 8.61864 7.75917 7.75909C8.61872 6.89955 9.78451 6.41667 11.0001 6.41667C12.2157 6.41667 13.3814 6.89955 14.241 7.75909C15.1005 8.61864 15.5834 9.78442 15.5834 11C15.5834 12.2156 15.1005 13.3814 14.241 14.2409C13.3814 15.1004 12.2157 15.5833 11.0001 15.5833ZM11.0001 4.125C6.41675 4.125 2.50258 6.97583 0.916748 11C2.50258 15.0242 6.41675 17.875 11.0001 17.875C15.5834 17.875 19.4976 15.0242 21.0834 11C19.4976 6.97583 15.5834 4.125 11.0001 4.125Z" fill="#3C4242"/>
</svg>
