<svg width="36" height="36" viewBox="0 0 36 36" fill="none" xmlns="http://www.w3.org/2000/svg">
<rect width="36" height="36" rx="12" fill="#F6F6F6"/>
<path d="M26.6055 14.5802C26.6165 14.7339 26.6165 14.8877 26.6165 15.0414C26.6165 19.7307 23.0473 25.1339 16.524 25.1339C14.5143 25.1339 12.6473 24.5518 11.0769 23.5415C11.3624 23.5744 11.637 23.5854 11.9335 23.5854C13.5918 23.5854 15.1183 23.0254 16.3373 22.0699C14.7778 22.037 13.471 21.0156 13.0207 19.6099C13.2404 19.6429 13.46 19.6648 13.6906 19.6648C14.0091 19.6648 14.3276 19.6209 14.6241 19.5441C12.9988 19.2146 11.7797 17.7869 11.7797 16.0627V16.0188C12.2519 16.2824 12.8011 16.4471 13.3831 16.4691C12.4276 15.8321 11.8017 14.7449 11.8017 13.5149C11.8017 12.856 11.9774 12.252 12.2849 11.7248C14.031 13.8773 16.6558 15.283 19.5989 15.4368C19.544 15.1732 19.5111 14.8987 19.5111 14.6241C19.5111 12.6693 21.0925 11.0769 23.0583 11.0769C24.0796 11.0769 25.0021 11.5052 25.65 12.1971C26.4517 12.0433 27.2204 11.7468 27.9013 11.3405C27.6377 12.1641 27.0777 12.856 26.3419 13.2953C27.0557 13.2184 27.7476 13.0207 28.3845 12.7462C27.9014 13.449 27.2974 14.075 26.6055 14.5802Z" fill="#2A2F2F"/>
</svg>
