<svg width="36" height="36" viewBox="0 0 36 36" fill="none" xmlns="http://www.w3.org/2000/svg">
<rect width="36" height="36" rx="12" fill="#F6F6F6"/>
<path d="M17.9628 14.0751C15.8129 14.0751 14.0787 15.8092 14.0787 17.9592C14.0787 20.1091 15.8129 21.8433 17.9628 21.8433C20.1127 21.8433 21.8469 20.1091 21.8469 17.9592C21.8469 15.8092 20.1127 14.0751 17.9628 14.0751ZM17.9628 20.4843C16.5734 20.4843 15.4376 19.3519 15.4376 17.9592C15.4376 16.5664 16.5701 15.434 17.9628 15.434C19.3555 15.434 20.488 16.5664 20.488 17.9592C20.488 19.3519 19.3521 20.4843 17.9628 20.4843ZM22.9117 13.9162C22.9117 14.4199 22.5061 14.8222 22.0058 14.8222C21.5021 14.8222 21.0998 14.4165 21.0998 13.9162C21.0998 13.4159 21.5055 13.0103 22.0058 13.0103C22.5061 13.0103 22.9117 13.4159 22.9117 13.9162ZM25.4842 14.8357C25.4267 13.6221 25.1495 12.5471 24.2605 11.6615C23.3748 10.7758 22.2999 10.4986 21.0863 10.4378C19.8355 10.3668 16.0867 10.3668 14.8359 10.4378C13.6257 10.4952 12.5508 10.7724 11.6617 11.6581C10.7727 12.5438 10.4989 13.6187 10.438 14.8323C10.367 16.083 10.367 19.8319 10.438 21.0827C10.4955 22.2962 10.7727 23.3712 11.6617 24.2569C12.5508 25.1425 13.6224 25.4197 14.8359 25.4806C16.0867 25.5516 19.8355 25.5516 21.0863 25.4806C22.2999 25.4231 23.3748 25.1459 24.2605 24.2569C25.1462 23.3712 25.4234 22.2962 25.4842 21.0827C25.5552 19.8319 25.5552 16.0864 25.4842 14.8357ZM23.8684 22.4247C23.6047 23.0873 23.0943 23.5977 22.4283 23.8647C21.4311 24.2603 19.0648 24.169 17.9628 24.169C16.8608 24.169 14.4911 24.2569 13.4973 23.8647C12.8347 23.6011 12.3243 23.0906 12.0572 22.4247C11.6617 21.4275 11.753 19.0612 11.753 17.9592C11.753 16.8572 11.6651 14.4875 12.0572 13.4937C12.3209 12.8311 12.8313 12.3207 13.4973 12.0536C14.4945 11.6581 16.8608 11.7494 17.9628 11.7494C19.0648 11.7494 21.4345 11.6615 22.4283 12.0536C23.0909 12.3173 23.6013 12.8277 23.8684 13.4937C24.2639 14.4909 24.1726 16.8572 24.1726 17.9592C24.1726 19.0612 24.2639 21.4309 23.8684 22.4247Z" fill="#2A2F2F"/>
</svg>
