<svg width="14" height="14" viewBox="0 0 14 14" fill="none" xmlns="http://www.w3.org/2000/svg">
<path d="M3.54766 4.12587V13.1538H1.13632V4.12587H3.54766ZM0.986129 1.77293C0.986129 1.4225 1.1085 1.13325 1.35325 0.905183C1.598 0.67712 1.92619 0.563089 2.33782 0.563089C2.74388 0.563089 3.06929 0.67712 3.31404 0.905183C3.56435 1.13325 3.6895 1.4225 3.6895 1.77293C3.6895 2.12337 3.56435 2.41262 3.31404 2.64068C3.06929 2.86875 2.74388 2.98278 2.33782 2.98278C1.92619 2.98278 1.598 2.86875 1.35325 2.64068C1.1085 2.41262 0.986129 2.12337 0.986129 1.77293ZM8.22817 6.05328V13.1538H5.82517V4.12587H8.07798L8.22817 6.05328ZM7.87773 8.32278H7.22692C7.22692 7.65528 7.31314 7.05453 7.48558 6.52053C7.65801 5.98096 7.89998 5.52206 8.21148 5.14381C8.52298 4.76 8.89289 4.46796 9.3212 4.26771C9.75508 4.0619 10.239 3.959 10.773 3.959C11.1958 3.959 11.5824 4.02018 11.9328 4.14256C12.2832 4.26493 12.5836 4.45962 12.8339 4.72662C13.0898 4.99362 13.2845 5.34684 13.418 5.78628C13.557 6.22571 13.6266 6.7625 13.6266 7.39662V13.1538H11.2069V7.38828C11.2069 6.98778 11.1513 6.67628 11.04 6.45378C10.9288 6.23128 10.7647 6.07553 10.5477 5.98653C10.3364 5.89196 10.0749 5.84468 9.76342 5.84468C9.4408 5.84468 9.15989 5.90865 8.9207 6.03659C8.68708 6.16453 8.49239 6.34253 8.33664 6.57059C8.18645 6.79309 8.07242 7.05453 7.99455 7.3549C7.91667 7.65528 7.87773 7.9779 7.87773 8.32278Z" fill="#2A2F2F"/>
</svg>
