<svg width="22" height="22" viewBox="0 0 22 22" fill="none" xmlns="http://www.w3.org/2000/svg">
<path d="M7.33325 8.25V6.41667C7.33325 4.39162 8.97487 2.75 10.9999 2.75C13.025 2.75 14.6666 4.39162 14.6666 6.41667V8.25M7.51658 19.25H14.4833C15.51 19.25 16.0234 19.25 16.4156 19.0502C16.7605 18.8744 17.041 18.5939 17.2168 18.249C17.4166 17.8568 17.4166 17.3434 17.4166 16.3167V11.1833C17.4166 10.1566 17.4166 9.64319 17.2168 9.25102C17.041 8.90605 16.7605 8.62559 16.4156 8.44982C16.0234 8.25 15.51 8.25 14.4833 8.25H7.51659C6.48982 8.25 5.97644 8.25 5.58427 8.44982C5.23931 8.62559 4.95884 8.90605 4.78307 9.25102C4.58325 9.64319 4.58325 10.1566 4.58325 11.1833V16.3167C4.58325 17.3434 4.58325 17.8568 4.78307 18.249C4.95884 18.5939 5.23931 18.8744 5.58427 19.0502C5.97644 19.25 6.48982 19.25 7.51658 19.25Z" stroke="#3C4242" stroke-width="1.5" stroke-linecap="round"/>
</svg>
