<svg width="20" height="20" viewBox="0 0 20 20" fill="none" xmlns="http://www.w3.org/2000/svg">
<path d="M12.4362 5.90689L10.7175 2.91506C10.3983 2.35955 9.59787 2.35689 9.27507 2.91027L7.46145 6.01933C7.22123 6.43113 6.81616 6.72035 6.34868 6.81384L3.87058 7.30946C3.22876 7.43783 2.97867 8.22206 3.42768 8.69829L5.22004 10.5993C5.60331 11.0058 5.75741 11.5773 5.63046 12.1213L4.81918 15.5983C4.65241 16.313 5.42416 16.8787 6.05555 16.5045L9.15073 14.6703C9.67464 14.3599 10.3262 14.3599 10.8501 14.6703L13.9453 16.5045C14.5766 16.8787 15.3484 16.313 15.1816 15.5983L14.3632 12.0909C14.2402 11.5637 14.3809 11.0095 14.7406 10.6049L16.5352 8.58603C16.9628 8.105 16.7069 7.34146 16.0758 7.21524L13.5545 6.71098C13.0832 6.61673 12.6756 6.32362 12.4362 5.90689Z" stroke="#EDD146" stroke-width="1.5" stroke-miterlimit="10"/>
</svg>
